Coordinates
version=1
nRows=16
nColumns=36
inDegrees=yes

Units are S.I. units (second, meters, Newtons, ...)
If the header above contains a line with 'inDegrees', this indicates whether rotational values are in degrees (yes) or radians (no).

endheader
time	pelvis_tilt	pelvis_list	pelvis_rotation	pelvis_tx	pelvis_ty	pelvis_tz	hip_flexion_r	hip_adduction_r	hip_rotation_r	knee_angle_r	knee_angle_r_beta	ankle_angle_r	subtalar_angle_r	mtp_angle_r	hip_flexion_l	hip_adduction_l	hip_rotation_l	knee_angle_l	knee_angle_l_beta	ankle_angle_l	subtalar_angle_l	mtp_angle_l	lumbar_extension	lumbar_bending	lumbar_rotation	arm_flex_r	arm_add_r	arm_rot_r	elbow_flex_r	pro_sup_r	arm_flex_l	arm_add_l	arm_rot_l	elbow_flex_l	pro_sup_l
      1.93333330	      2.63121561	     -0.39461514	      0.54070142	      0.40945057	      0.89964902	     -0.10098196	     -4.00140111	     -1.76508327	      3.87016079	      1.17944759	      0.02058524	      4.79936667	    -16.21892615	     -7.49999987	     -3.53213658	     -3.55182239	      3.32531121	      2.15018985	      0.03752789	      5.43953453	     -6.97606002	     -7.49999987	     -5.23416934	     -1.20546672	     -0.36162707	      6.81000296	    -11.20448805	     45.62639247	     30.40676858	     64.14117317	      2.86268753	    -12.78903960	     39.48589787	     27.94447555	     55.74656438
      1.95000000	      2.43431628	     -0.48420140	      0.48943559	      0.40805436	      0.89762352	     -0.10122605	     -3.63202498	     -1.60045778	      4.17673683	      1.24123542	      0.02166364	      4.96233162	    -16.47597990	     -7.49999987	     -3.19541935	     -3.73217150	      3.27497800	      2.23734137	      0.03904897	      5.68981251	     -6.85297061	     -7.49999987	     -5.26568010	     -1.30513032	     -0.32173093	      7.08480661	    -11.10732428	     46.21013473	     30.31996811	     64.00900417	      3.04338857	    -13.00115223	     39.78090635	     28.00299683	     55.83081472
      1.96666670	      2.43444971	     -0.48558005	      0.54804653	      0.41276952	      0.89688886	     -0.10684047	     -3.63786716	     -1.64993231	      4.18313441	      1.31019358	      0.02286719	      4.91684065	    -16.47073212	     -7.49999987	     -3.19124501	     -3.70863805	      3.27262441	      2.20698967	      0.03851924	      5.70526455	     -6.85506700	     -7.49999987	     -5.29661421	     -1.27566134	     -0.36992962	      7.02069528	    -11.14411782	     46.21308342	     30.29406077	     64.01361495	      3.06070519	    -12.98019422	     39.78244772	     28.01092718	     55.81885610
      1.98333330	      2.37595827	     -0.51424653	      0.54147795	      0.41269677	      0.89578246	     -0.10375392	     -3.54220682	     -1.64370177	      4.29154805	      1.39222294	      0.02429887	      4.86442386	    -16.73944296	     -7.49999987	     -3.20481469	     -3.73446366	      3.39475171	      2.06895911	      0.03611015	      5.80493973	     -6.94891770	     -7.49999987	     -5.22814304	     -1.26928841	     -0.40832644	      6.91852817	    -11.18753413	     46.00732544	     30.40607076	     64.43477880	      3.00258367	    -12.97700828	     39.74721250	     28.10652504	     55.08721285
      2.00000000	      2.37634778	     -0.55004845	      0.55935496	      0.41191747	      0.89518572	     -0.10218098	     -3.53995704	     -1.59379056	      4.34896739	      1.44377365	      0.02519860	      4.90646684	    -16.91020194	     -7.49999987	     -3.26036266	     -3.79127666	      3.38907851	      2.03226705	      0.03546975	      5.97004666	     -6.73746032	     -7.49999987	     -5.24523129	     -1.29630791	     -0.41900064	      6.73426206	    -11.16295321	     45.32987183	     30.65067873	     64.17307270	      2.90734880	    -12.97627680	     39.13818450	     28.22331525	     55.27223665
      2.01666670	      2.24945249	     -0.55735506	      0.59409360	      0.41139850	      0.89768828	     -0.10302947	     -3.41648659	     -1.59448518	      4.26331614	      1.44622488	      0.02524139	      5.03392367	    -16.68040772	     -7.49999987	     -3.18744794	     -3.80547347	      3.54518858	      1.89815263	      0.03312901	      5.81956347	     -6.91492942	     -7.49999987	     -5.05941203	     -1.32685150	     -0.49966298	      6.65115380	    -11.10623053	     45.09565540	     30.58606051	     64.54127475	      2.82868125	    -12.96926937	     38.91918333	     28.16064892	     55.30842365
      2.03333330	      2.18184869	     -0.56785109	      0.55364644	      0.41012006	      0.89725095	     -0.10334419	     -3.32039662	     -1.58206135	      4.45668417	      1.40670122	      0.02455157	      4.94113690	    -16.95412953	     -7.49999987	     -3.15864451	     -3.82066792	      3.37232590	      1.79439542	      0.03131811	      5.99652769	     -6.56082283	     -7.49999987	     -5.03557135	     -1.34993392	     -0.46293821	      6.52707966	    -11.17152969	     44.68739259	     30.94127965	     64.73740376	      2.76733147	    -12.95966062	     38.60083087	     28.27435004	     55.27712252
      2.05000000	      2.09641031	     -0.58466670	      0.56173899	      0.40994044	      0.89715911	     -0.10270358	     -3.21221435	     -1.54031590	      4.46408543	      1.40140476	      0.02445913	      5.01911025	    -16.91215029	     -7.49999987	     -3.08813731	     -3.84274808	      3.58467401	      1.68559467	      0.02941918	      5.89443946	     -6.81855821	     -7.49999987	     -5.03920740	     -1.41073549	     -0.43471286	      6.47351763	    -11.06419361	     44.24161475	     30.87955912	     64.62672396	      2.74433175	    -12.95017073	     38.13098655	     28.26661673	     55.59603688
      2.06666670	      1.83235792	     -0.59885872	      0.57622137	      0.41021964	      0.89628086	     -0.10464111	     -2.89438998	     -1.54630728	      3.97563544	      1.43963560	      0.02512638	      5.67663925	    -15.74974996	     -7.49999987	     -2.80055203	     -3.83718427	      3.25107386	      1.63226341	      0.02848837	      6.10419365	     -6.11479596	     -7.49999987	     -4.70159842	     -1.40584990	     -0.43365694	      6.27747310	    -10.79890702	     43.10706451	     30.29045612	     63.82888268	      2.62554547	    -12.65467963	     36.92460152	     27.84521811	     56.08020981
      2.08333330	      1.75044964	     -0.59376362	      0.52593626	      0.40506532	      0.90182731	     -0.10331612	     -2.72730613	     -1.53122904	      4.01493944	      1.35509365	      0.02365085	      5.67046456	    -15.76269273	     -7.49999987	     -2.64524465	     -3.81169565	      3.24523274	      1.56759248	      0.02735965	      6.09147607	     -6.14292669	     -7.49999987	     -4.84228035	     -1.40623333	     -0.44346885	      6.36259981	    -10.79577357	     43.11350975	     30.33115945	     63.84391601	      2.71916335	    -12.66072116	     36.93143051	     27.88410966	     56.07855275
      2.10000000	      1.62587805	     -0.59354455	      0.46528789	      0.40466164	      0.89998324	     -0.10279116	     -2.48194967	     -1.49553462	      4.57773144	      1.28084971	      0.02235504	      4.97505172	    -16.74065603	     -7.49999987	     -2.40257609	     -3.79284654	      3.46474634	      1.56728315	      0.02735425	      5.41586618	     -6.91434449	     -7.49999987	     -5.07683126	     -1.45855335	     -0.40138924	      6.53080226	    -10.91312215	     43.15578462	     30.79634632	     64.40402157	      2.84524402	    -12.88547580	     36.80141523	     28.38508018	     56.53190945
      2.11666670	      1.47838997	     -0.59769152	      0.43794054	      0.40338286	      0.89879539	     -0.10242783	     -2.22867124	     -1.45928088	      4.57847236	      1.23086360	      0.02148262	      4.81596117	    -16.72282196	     -7.49999987	     -2.10237086	     -3.79483961	      3.29224707	      1.57173826	      0.02743201	      5.34299366	     -6.73628966	     -7.49999987	     -5.27614763	     -1.45921874	     -0.30930139	      6.57480391	    -10.86678127	     42.48112263	     30.86830162	     64.17366942	      2.95779151	    -12.88183907	     35.99712046	     28.48830279	     57.33179854
      2.13333330	      1.14636999	     -0.60343271	      0.39120152	      0.40234678	      0.89796199	     -0.10265154	     -1.74904414	     -1.44089001	      4.63398713	      1.23642914	      0.02157976	      4.73275948	    -16.79449827	     -7.49999987	     -1.58243809	     -3.77285308	      3.30348785	      1.60200934	      0.02796034	      5.18826991	     -6.99286131	     -7.49999987	     -5.15589850	     -1.44039866	     -0.36739347	      6.81897793	    -10.81098574	     42.89367478	     30.48660871	     64.74443441	      3.05028509	    -12.96633571	     36.06753690	     28.41575225	     57.89873049
      2.15000000	      1.04126193	     -0.60429879	      0.41625397	      0.40272179	      0.89799362	     -0.10289783	     -1.58813482	     -1.43997216	      4.50928220	      1.20699403	      0.02106602	      4.68454500	    -16.56165509	     -7.49999987	     -1.35251996	     -3.76219332	      3.06546885	      1.59138940	      0.02777498	      5.18004127	     -6.72856075	     -7.49999987	     -5.35633893	     -1.40201028	     -0.28555568	      6.73601934	    -10.78511997	     41.82921859	     30.58025183	     67.30960764	      3.24275817	    -13.01637402	     36.48088235	     28.51285434	     56.81918459
      2.16666670	      0.92146494	     -0.60301016	      0.37504916	      0.40171673	      0.89518042	     -0.10188984	     -1.37249964	     -1.42639552	      4.51047737	      1.21741864	      0.02124796	      4.77391624	    -16.36007080	     -7.49999987	     -1.16216829	     -3.77407184	      2.98380404	      1.54137781	      0.02690212	      5.06760330	     -6.89455477	     -7.49999987	     -5.53329368	     -1.43029433	     -0.18831034	      6.67733061	    -10.83157018	     41.44104856	     30.78534120	     65.19499496	      3.23200051	    -12.99192584	     35.28618822	     28.66210445	     58.03697720
      2.18333330	      0.78463009	     -0.62465230	      0.42922939	      0.40014981	      0.89347239	     -0.10213508	     -1.17794672	     -1.37957041	      4.50077735	      1.25798829	      0.02195604	      4.69317173	    -16.68379748	     -7.49999987	     -0.90146079	     -3.82211104	      2.82934740	      1.55970929	      0.02722206	      5.20017637	     -6.58241721	     -7.49999987	     -5.65503878	     -1.45376933	     -0.24504457	      6.78261192	    -10.77547403	     41.51191123	     30.78623519	     65.41860145	      3.24052214	    -13.04384722	     34.97893517	     28.85560262	     58.25087875
